<svg width="22" height="22" viewBox="0 0 22 22" fill="none" xmlns="http://www.w3.org/2000/svg">
<path d="M15.56 15.5016L14.4873 14.4289C15.4083 13.5015 15.927 12.2486 15.9309 10.9416C15.9309 8.22267 13.7188 6.01053 10.9999 6.01053C8.28102 6.01053 6.06888 8.22267 6.06888 10.9416C6.07288 12.2484 6.59155 13.501 7.51253 14.4282L6.43984 15.5009C5.23493 14.2888 4.55648 12.6506 4.55164 10.9416C4.55164 7.38591 7.44426 4.49329 10.9999 4.49329C14.5556 4.49329 17.4482 7.38591 17.4482 10.9416C17.4432 12.6508 16.7648 14.2892 15.56 15.5016Z"  fill="currentColor"/>
<path d="M13.4139 13.3555L12.3412 12.2828C12.6955 11.9261 12.895 11.4443 12.8965 10.9416C12.8965 9.89618 12.0461 9.04501 11 9.04501C9.95384 9.04501 9.10342 9.89618 9.10342 10.9416C9.10342 11.4407 9.30597 11.9293 9.65873 12.2828L8.58604 13.3555C7.94801 12.7138 7.58874 11.8464 7.58618 10.9416C7.58618 9.05943 9.11784 7.52777 11 7.52777C12.8821 7.52777 14.4138 9.05943 14.4138 10.9416C14.4138 11.8398 14.0496 12.7198 13.4139 13.3555Z" fill="currentColor"/>
<path d="M17.7054 17.647L16.6327 16.5743C18.1212 15.0768 18.9594 13.053 18.9655 10.9416C18.9655 6.54915 15.3924 2.97604 11 2.97604C6.60756 2.97604 3.03445 6.5499 3.03445 10.9416C3.03445 13.0376 3.88487 15.0905 5.36721 16.5736L4.29452 17.6462C2.52218 15.8641 1.52421 13.4549 1.51721 10.9416C1.51721 5.71239 5.7708 1.4588 11 1.4588C16.2291 1.4588 20.4827 5.71315 20.4827 10.9416C20.4827 13.4374 19.4707 15.8817 17.7054 17.647Z"  fill="currentColor"/>
<path d="M16.6894 20.5412H5.31009C5.16008 20.5411 5.01344 20.4966 4.88871 20.4133C4.76399 20.3299 4.66678 20.2114 4.60937 20.0728C4.55197 19.9342 4.53695 19.7817 4.5662 19.6346C4.59546 19.4874 4.66769 19.3523 4.77375 19.2462L10.4634 13.5565C10.5338 13.486 10.6174 13.4301 10.7094 13.3919C10.8015 13.3538 10.9001 13.3341 10.9998 13.3341C11.0994 13.3341 11.198 13.3538 11.2901 13.3919C11.3821 13.4301 11.4657 13.486 11.5361 13.5565L17.2257 19.2462C17.3318 19.3523 17.404 19.4874 17.4333 19.6346C17.4626 19.7817 17.4475 19.9342 17.3901 20.0728C17.3327 20.2114 17.2355 20.3299 17.1108 20.4133C16.9861 20.4966 16.8394 20.5411 16.6894 20.5412ZM7.1414 19.0239H14.8581L10.9998 15.1656L7.1414 19.0239Z" fill="currentColor"/>
</svg>
