<svg width="21" height="24" viewBox="0 0 21 24" fill="none" xmlns="http://www.w3.org/2000/svg">
<path d="M21 6.66667H17.3119C16.7213 5.62667 15.9075 4.72667 14.9297 4.05333L17.0625 1.88667L15.2053 0L12.3506 2.9C11.76 2.75333 11.1366 2.66667 10.5 2.66667C9.86344 2.66667 9.24 2.75333 8.64937 2.9L5.79469 0L3.9375 1.88667L6.07031 4.05333C5.09224 4.7306 4.27781 5.62404 3.68812 6.66667H0V9.33333H2.74313C2.67094 9.76667 2.625 10.2133 2.625 10.6667V12H0V14.6667H2.625V16C2.625 16.4533 2.67094 16.9 2.74313 17.3333H0V20H3.68812C5.04656 22.3867 7.58625 24 10.5 24C13.4137 24 15.9534 22.3867 17.3119 20H21V17.3333H18.2569C18.3291 16.9 18.375 16.4533 18.375 16V14.6667H21V12H18.375V10.6667C18.375 10.2133 18.3291 9.76667 18.2569 9.33333H21V6.66667ZM13.125 17.3333H7.875V14.6667H13.125V17.3333ZM13.125 12H7.875V9.33333H13.125V12Z" fill="black"/>
</svg>
