<svg width="19" height="22" viewBox="0 0 19 22" fill="none" xmlns="http://www.w3.org/2000/svg">
<path d="M1.35714 19.25H2.71429V20.625C2.71429 20.9897 2.85727 21.3394 3.11178 21.5973C3.3663 21.8551 3.71149 22 4.07143 22H17.6429C18.0028 22 18.348 21.8551 18.6025 21.5973C18.857 21.3394 19 20.9897 19 20.625V4.125C19 3.76033 18.857 3.41059 18.6025 3.15273C18.348 2.89487 18.0028 2.75 17.6429 2.75H16.2857V1.375C16.2857 1.01033 16.1427 0.660591 15.8882 0.402728C15.6337 0.144866 15.2885 0 14.9286 0L1.35714 0C0.997206 0 0.652012 0.144866 0.397498 0.402728C0.142984 0.660591 0 1.01033 0 1.375V17.875C0 18.2397 0.142984 18.5894 0.397498 18.8473C0.652012 19.1051 0.997206 19.25 1.35714 19.25ZM17.6429 4.125V20.625H4.07143V19.25H14.9286C15.2885 19.25 15.6337 19.1051 15.8882 18.8473C16.1427 18.5894 16.2857 18.2397 16.2857 17.875V4.125H17.6429ZM12.8929 2.75C13.0728 2.75 13.2454 2.82243 13.3727 2.95136C13.4999 3.0803 13.5714 3.25516 13.5714 3.4375C13.5714 3.61984 13.4999 3.7947 13.3727 3.92364C13.2454 4.05257 13.0728 4.125 12.8929 4.125H7.40729C7.22732 4.125 7.05472 4.05257 6.92746 3.92364C6.80021 3.7947 6.72871 3.61984 6.72871 3.4375C6.72871 3.25516 6.80021 3.0803 6.92746 2.95136C7.05472 2.82243 7.22732 2.75 7.40729 2.75H12.8929ZM3.33586 6.875H12.8929C13.0728 6.875 13.2454 6.94743 13.3727 7.07636C13.4999 7.2053 13.5714 7.38016 13.5714 7.5625C13.5714 7.74484 13.4999 7.9197 13.3727 8.04864C13.2454 8.17757 13.0728 8.25 12.8929 8.25H3.33586C3.15589 8.25 2.98329 8.17757 2.85603 8.04864C2.72878 7.9197 2.65729 7.74484 2.65729 7.5625C2.65729 7.38016 2.72878 7.2053 2.85603 7.07636C2.98329 6.94743 3.15589 6.875 3.33586 6.875ZM3.33586 11H12.8929C13.0728 11 13.2454 11.0724 13.3727 11.2014C13.4999 11.3303 13.5714 11.5052 13.5714 11.6875C13.5714 11.8698 13.4999 12.0447 13.3727 12.1736C13.2454 12.3026 13.0728 12.375 12.8929 12.375H3.33586C3.15589 12.375 2.98329 12.3026 2.85603 12.1736C2.72878 12.0447 2.65729 11.8698 2.65729 11.6875C2.65729 11.5052 2.72878 11.3303 2.85603 11.2014C2.98329 11.0724 3.15589 11 3.33586 11ZM3.33586 15.125H12.8929C13.0728 15.125 13.2454 15.1974 13.3727 15.3264C13.4999 15.4553 13.5714 15.6302 13.5714 15.8125C13.5714 15.9948 13.4999 16.1697 13.3727 16.2986C13.2454 16.4276 13.0728 16.5 12.8929 16.5H3.33586C3.15589 16.5 2.98329 16.4276 2.85603 16.2986C2.72878 16.1697 2.65729 15.9948 2.65729 15.8125C2.65729 15.6302 2.72878 15.4553 2.85603 15.3264C2.98329 15.1974 3.15589 15.125 3.33586 15.125Z" fill="black"/>
</svg>
