<svg width="26" height="18" viewBox="0 0 26 18" fill="none" xmlns="http://www.w3.org/2000/svg">
<path d="M8.45 9C10.9639 9 13 6.98625 13 4.5C13 2.01375 10.9639 0 8.45 0C5.93612 0 3.9 2.01375 3.9 4.5C3.9 6.98625 5.93612 9 8.45 9ZM22.75 6.75C22.75 8.70345 21.1502 10.2857 19.175 10.2857C17.1998 10.2857 15.6 8.70345 15.6 6.75C15.6 4.79649 17.1998 3.21429 19.175 3.21429C21.1502 3.21429 22.75 4.79649 22.75 6.75ZM8.45 10.2857C10.2268 10.2857 13.1189 10.8329 15.0157 11.9219C15.7905 12.7019 16.25 13.5523 16.25 14.4V18H0V14.4C0 11.664 5.62978 10.2857 8.45 10.2857ZM26 18H17.55V14.4C17.55 13.4895 17.2176 12.6515 16.6897 11.9035C17.6912 11.6823 18.6773 11.5714 19.4303 11.5714C21.8537 11.5714 26 12.72 26 15V18Z" fill="currentColor"/>
</svg>
