<svg width="20" height="21" viewBox="0 0 20 21" fill="none" xmlns="http://www.w3.org/2000/svg">
<path d="M10.0535 0H9.9452C4.02601 0 1.3472 3.91604 1.25004 4.06267C1.17851 4.15916 -0.496388 6.45981 0.146741 9.47623C0.87143 12.8791 3.86534 13.0767 4.54702 13.0767C4.5936 13.0767 4.62947 13.0758 4.6531 13.0749C5.16319 13.0834 5.91395 12.9486 6.58783 12.5281L5.97278 16.2418C5.91996 16.455 5.66414 17.6878 6.44098 18.71C7.10037 19.5775 8.27944 20.0168 9.9452 20.0168H10.0535C11.7199 20.0168 12.8992 19.5773 13.5586 18.71C14.3348 17.6876 14.0787 16.455 14.0261 16.2418L13.4111 12.5267C14.085 12.9466 14.8355 13.081 15.3461 13.0749C15.7142 13.0876 19.0782 13.1117 19.8537 9.47623C20.4955 6.45958 18.8206 4.15916 18.7638 4.08273C18.6517 3.91649 15.9736 0 10.0535 0ZM14.737 2.0651C14.7368 2.27659 14.6528 2.47937 14.5032 2.62894C14.3537 2.77851 14.151 2.86264 13.9395 2.86288C13.7278 2.86276 13.5249 2.77869 13.3752 2.62912C13.2255 2.47956 13.1413 2.27671 13.141 2.0651C13.141 1.84158 13.2368 1.63278 13.3966 1.48325C13.8548 1.62923 14.3018 1.80842 14.7339 2.01941C14.7343 2.03479 14.737 2.04972 14.737 2.0651ZM12.7731 18.1244C12.3073 18.7307 11.3924 19.0376 10.0535 19.0376H9.94542C8.60724 19.0376 7.69247 18.7307 7.2265 18.1244C6.68232 17.4173 6.92299 16.4804 6.92477 16.4738L7.8206 11.0789C7.93548 10.8082 8.01813 10.5248 8.06685 10.2348C8.4546 7.97247 7.03107 6.99619 6.14036 6.76399C6.57312 6.16187 7.64745 5.13076 9.9452 5.13076C12.2155 5.13076 13.3953 6.1349 13.9074 6.75129C13.0211 6.96009 11.537 7.93102 11.9321 10.2352C11.9812 10.5249 12.0638 10.8078 12.1781 11.0785L13.0632 16.4225L13.0735 16.4709C13.0766 16.4804 13.3166 17.4173 12.7731 18.1244ZM18.8948 9.27255C18.2595 12.2535 15.4996 12.1051 15.3853 12.0967L15.3601 12.0949L15.3371 12.0955C15.2525 12.0978 13.248 12.1125 12.8974 10.0697C12.5616 8.11175 13.9985 7.73269 14.1603 7.69659L14.2009 7.68679C14.4389 7.6157 15.2257 7.48266 15.6993 7.79086C15.9515 7.95509 16.1002 8.23276 16.1516 8.639C16.1882 8.92469 16.1367 9.15176 15.9943 9.33271C15.7256 9.675 15.1725 9.80448 14.9817 9.82587C14.853 9.83958 14.7349 9.9037 14.6532 10.0042C14.5716 10.1047 14.5331 10.2334 14.546 10.3623C14.5594 10.4913 14.6234 10.6099 14.724 10.6919C14.8245 10.7739 14.9535 10.8128 15.0826 10.7999C15.1938 10.7886 16.1842 10.6687 16.7587 9.94487C17.0666 9.55623 17.193 9.06196 17.1228 8.51465C17.0107 7.64378 16.577 7.1943 16.2327 6.97012C15.8495 6.72098 15.4093 6.63429 15.0156 6.62048C14.6619 6.03774 13.2642 4.15114 9.94453 4.15114C6.64577 4.15114 5.3945 6.01546 5.07137 6.6314C4.71705 6.64432 4.31526 6.71964 3.94378 6.93291C3.40539 7.24199 3.04884 7.75765 2.88371 8.46585C2.72527 9.14619 2.92271 9.61929 3.11592 9.89629C3.6347 10.6399 4.63906 10.7843 4.75204 10.7986C4.87929 10.8117 5.00663 10.7745 5.10681 10.6949C5.20699 10.6154 5.27207 10.4998 5.28814 10.3729C5.30421 10.246 5.26999 10.1178 5.19279 10.0158C5.1156 9.91377 5.00155 9.84601 4.87505 9.82698C4.6863 9.80158 4.14613 9.66408 3.91771 9.33361C3.80228 9.16603 3.77598 8.95499 3.83793 8.68825C3.93999 8.25147 4.13275 7.95576 4.42758 7.78506C4.99984 7.45325 5.78715 7.68389 5.7925 7.68567L5.83818 7.69748C5.90414 7.71108 7.44645 8.05448 7.10104 10.0699C6.75095 12.1131 4.74468 12.096 4.66357 12.0964L4.63839 12.0958L4.61521 12.0975C4.49666 12.1053 1.73941 12.2549 1.10452 9.27299C0.555883 6.70048 2.02197 4.66613 2.05028 4.62691C2.07479 4.59059 4.54413 0.980069 9.94453 0.980069H10.0531C10.9021 0.980069 11.6769 1.06765 12.3804 1.21517C12.237 1.47572 12.1614 1.76813 12.1605 2.06554C12.1605 3.04539 12.9583 3.8425 13.9388 3.8425C14.7562 3.8425 15.4448 3.28606 15.6511 2.53307C17.1627 3.49175 17.8996 4.5556 17.9609 4.64586C17.9761 4.66547 19.4426 6.69981 18.8948 9.27255Z" fill="black"/>
<path d="M4.53011 2.79135C4.2675 2.79171 4.01574 2.89622 3.83009 3.08196C3.64443 3.2677 3.54003 3.5195 3.53979 3.78212C3.54003 4.04469 3.64444 4.29645 3.83011 4.48212C4.01578 4.66779 4.26754 4.7722 4.53011 4.77244C4.79269 4.77214 5.04444 4.66772 5.23013 4.48207C5.41582 4.29642 5.5203 4.0447 5.52066 3.78212C5.52042 3.51946 5.41599 3.26763 5.23029 3.08188C5.04458 2.89613 4.79277 2.79165 4.53011 2.79135Z" fill="black"/>
</svg>
