<svg width="29" height="21" viewBox="0 0 29 21" fill="none" xmlns="http://www.w3.org/2000/svg">
<path d="M19.7742 0.00131295C18.3261 0.00131295 17.1378 1.18446 17.1378 2.62615C17.1378 3.84013 17.9841 4.8612 19.1151 5.15583V6.41707L14.5297 16.1178L11.1532 8.27283C11.0994 8.1474 11.0078 8.04176 10.8909 7.97059C10.7741 7.89942 10.6379 7.86626 10.5012 7.87572C10.3646 7.88517 10.2343 7.93677 10.1285 8.02335C10.0227 8.10992 9.94657 8.22717 9.91076 8.35879L8.43043 13.7614L7.19792 10.8977C7.14727 10.7793 7.06279 10.6784 6.95497 10.6074C6.84716 10.5365 6.72078 10.4986 6.59155 10.4986C6.46232 10.4986 6.33593 10.5365 6.22812 10.6074C6.12031 10.6784 6.03583 10.7793 5.98518 10.8977L4.08566 15.312L2.63696 16.2746L1.02481 15.2044C0.952799 15.1565 0.87203 15.1233 0.787113 15.1065C0.702197 15.0898 0.614797 15.0898 0.529906 15.1067C0.445014 15.1236 0.364294 15.157 0.292356 15.2049C0.220417 15.2528 0.15867 15.3144 0.110639 15.3861C0.0626227 15.4579 0.0292726 15.5383 0.012494 15.6229C-0.00428454 15.7075 -0.00416274 15.7945 0.0128529 15.879C0.0298686 15.9635 0.0634444 16.0439 0.111662 16.1155C0.15988 16.1871 0.221794 16.2485 0.293868 16.2963L2.27116 17.6087C2.37947 17.6807 2.50676 17.7191 2.63696 17.7191C2.76716 17.7191 2.89445 17.6807 3.00276 17.6087L4.98005 16.2963C5.08632 16.2257 5.16967 16.1258 5.21997 16.0089L6.59155 12.8243L7.96247 16.0089C8.01616 16.1343 8.10777 16.24 8.22456 16.3112C8.34135 16.3824 8.47752 16.4156 8.61415 16.4063C8.75078 16.3969 8.88109 16.3454 8.98695 16.2589C9.09281 16.1723 9.16898 16.0552 9.20487 15.9236L10.6852 10.521L13.895 17.9775C13.9451 18.0937 14.0279 18.1931 14.1333 18.2636C14.2388 18.3341 14.3625 18.3727 14.4895 18.3748C14.6165 18.377 14.7414 18.3426 14.8493 18.2757C14.9571 18.2088 15.0432 18.1123 15.0972 17.9978L19.1144 9.49666V20.3438C19.1144 20.5178 19.1838 20.6847 19.3075 20.8078C19.4311 20.9309 19.5987 21 19.7735 21C19.9483 21 20.116 20.9309 20.2396 20.8078C20.3632 20.6847 20.4326 20.5178 20.4326 20.3438V9.16658L23.8065 15.4045C23.8666 15.5153 23.9574 15.6066 24.0682 15.6674C24.1789 15.7282 24.3049 15.756 24.4311 15.7475C24.5573 15.739 24.6783 15.6945 24.7798 15.6194C24.8813 15.5443 24.9589 15.4417 25.0034 15.3238L28.958 4.82445C29.0194 4.66163 29.0133 4.48123 28.9411 4.32288C28.8689 4.16453 28.7366 4.04117 28.5731 3.97991C28.5035 3.95379 28.43 3.93959 28.3556 3.93791C28.2192 3.93507 28.0853 3.97445 27.9723 4.05061C27.8593 4.12678 27.7729 4.23597 27.7249 4.36313L24.2817 13.512L20.4326 6.39541V5.15518C21.563 4.85988 22.4099 3.83882 22.4099 2.62484C22.4099 1.18315 21.2215 0 19.7735 0L19.7742 0.00131295ZM19.7742 1.31373C20.5097 1.31373 21.0924 1.89382 21.0924 2.62615C21.0924 3.35848 20.5097 3.93857 19.7742 3.93857C19.0386 3.93857 18.456 3.35848 18.456 2.62615C18.456 1.89382 19.0386 1.31373 19.7742 1.31373Z" fill="black"/>
</svg>
