<svg width="19" height="19" viewBox="0 0 19 19" fill="none" xmlns="http://www.w3.org/2000/svg">
<path d="M8.08291 4.91625L8.70833 4.28292V7.91667C8.70833 8.12663 8.79173 8.32799 8.9402 8.47646C9.08867 8.62492 9.29003 8.70833 9.49999 8.70833C9.70996 8.70833 9.91132 8.62492 10.0598 8.47646C10.2083 8.32799 10.2917 8.12663 10.2917 7.91667V4.28292L10.9171 4.91625C10.9907 4.99045 11.0782 5.04935 11.1747 5.08954C11.2712 5.12973 11.3747 5.15042 11.4792 5.15042C11.5837 5.15042 11.6871 5.12973 11.7836 5.08954C11.8801 5.04935 11.9676 4.99045 12.0412 4.91625C12.1154 4.84265 12.1743 4.75509 12.2145 4.65862C12.2547 4.56215 12.2754 4.45868 12.2754 4.35417C12.2754 4.24966 12.2547 4.14618 12.2145 4.04971C12.1743 3.95324 12.1154 3.86568 12.0412 3.79208L10.0621 1.81292C9.98679 1.74084 9.89801 1.68434 9.80083 1.64667C9.60809 1.56749 9.3919 1.56749 9.19916 1.64667C9.10198 1.68434 9.0132 1.74084 8.93791 1.81292L6.95874 3.79208C6.80967 3.94116 6.72592 4.14334 6.72592 4.35417C6.72592 4.56499 6.80967 4.76718 6.95874 4.91625C7.10782 5.06532 7.31 5.14907 7.52083 5.14907C7.73165 5.14907 7.93384 5.06532 8.08291 4.91625ZM14.25 5.985C14.1751 5.91015 14.0863 5.85077 13.9885 5.81026C13.8907 5.76975 13.7859 5.7489 13.68 5.7489C13.5741 5.7489 13.4693 5.76975 13.3715 5.81026C13.2737 5.85077 13.1848 5.91015 13.11 5.985C13.0351 6.05985 12.9758 6.14872 12.9353 6.24652C12.8947 6.34432 12.8739 6.44914 12.8739 6.555C12.8739 6.66086 12.8947 6.76568 12.9353 6.86348C12.9758 6.96128 13.0351 7.05015 13.11 7.125C13.8243 7.83905 14.3108 8.74889 14.508 9.73946C14.7052 10.73 14.6042 11.7568 14.2177 12.69C13.8313 13.6231 13.1768 14.4207 12.3371 14.9819C11.4973 15.5431 10.51 15.8426 9.49999 15.8426C8.48999 15.8426 7.50268 15.5431 6.66292 14.9819C5.82316 14.4207 5.16868 13.6231 4.78225 12.69C4.39583 11.7568 4.29482 10.73 4.492 9.73946C4.68917 8.74889 5.17568 7.83905 5.88999 7.125C5.96485 7.05015 6.02422 6.96128 6.06473 6.86348C6.10524 6.76568 6.1261 6.66086 6.1261 6.555C6.1261 6.44914 6.10524 6.34432 6.06473 6.24652C6.02422 6.14872 5.96485 6.05985 5.88999 5.985C5.81514 5.91015 5.72628 5.85077 5.62847 5.81026C5.53067 5.76975 5.42585 5.7489 5.31999 5.7489C5.21413 5.7489 5.10931 5.76975 5.01151 5.81026C4.91371 5.85077 4.82485 5.91015 4.74999 5.985C3.81734 6.92325 3.18345 8.11669 2.92827 9.41478C2.67309 10.7129 2.80806 12.0575 3.31615 13.2789C3.82425 14.5004 4.6827 15.544 5.78323 16.2782C6.88376 17.0124 8.17706 17.4042 9.49999 17.4042C10.8229 17.4042 12.1162 17.0124 13.2168 16.2782C14.3173 15.544 15.1757 14.5004 15.6838 13.2789C16.1919 12.0575 16.3269 10.7129 16.0717 9.41478C15.8165 8.11669 15.1826 6.92325 14.25 5.985Z" fill="black"/>
</svg>
