<svg width="33" height="27" viewBox="0 0 33 27" fill="none" xmlns="http://www.w3.org/2000/svg">
<path d="M32.0615 8.99921H29.0806L26.9434 3.71247C26.8942 3.59415 26.806 3.4962 26.6935 3.43483C26.581 3.37346 26.4509 3.35236 26.3248 3.37501L24.8625 3.71247L20.5881 0.112981L20.2506 0.000496979H14.064C13.9816 -0.00281016 13.8993 0.0104142 13.822 0.039391C13.7447 0.0683677 13.674 0.112511 13.6141 0.169223L10.2958 4.10616L7.93366 3.93743C7.83705 3.92807 7.73965 3.94386 7.65095 3.98328C7.56225 4.0227 7.48527 4.08441 7.42748 4.1624L3.77175 8.99921H0.565963C0.489927 8.99017 0.41283 8.99849 0.340477 9.02356C0.268124 9.04862 0.202401 9.08978 0.148256 9.14392C0.0941114 9.19807 0.0529566 9.26379 0.0278902 9.33614C0.00282376 9.4085 -0.00550088 9.48559 0.00354309 9.56163V12.9361C-0.00550088 13.0122 0.00282376 13.0893 0.0278902 13.1616C0.0529566 13.234 0.0941114 13.2997 0.148256 13.3539C0.202401 13.408 0.268124 13.4492 0.340477 13.4742C0.41283 13.4993 0.489927 13.5076 0.565963 13.4986H2.42195L5.06532 20.6975C4.57159 20.9804 4.15742 21.3836 3.86132 21.8695C3.56522 22.3554 3.3968 22.9083 3.37173 23.4768C3.34666 24.0453 3.46575 24.6109 3.71792 25.121C3.9701 25.6311 4.34717 26.0691 4.81408 26.3944C5.28098 26.7196 5.82256 26.9215 6.38844 26.9813C6.95432 27.0411 7.52613 26.9568 8.05069 26.7363C8.57525 26.5158 9.03554 26.1662 9.38874 25.7201C9.74194 25.2739 9.97658 24.7457 10.0709 24.1845H22.5566C22.6508 24.7457 22.8855 25.2739 23.2387 25.7201C23.5919 26.1662 24.0522 26.5158 24.5767 26.7363C25.1013 26.9568 25.6731 27.0411 26.239 26.9813C26.8049 26.9215 27.3464 26.7196 27.8133 26.3944C28.2802 26.0691 28.6573 25.6311 28.9095 25.121C29.1617 24.6109 29.2808 24.0453 29.2557 23.4768C29.2306 22.9083 29.0622 22.3554 28.7661 21.8695C28.47 21.3836 28.0558 20.9804 27.5621 20.6975L30.2055 13.4986H32.0615C32.1375 13.5076 32.2146 13.4993 32.2869 13.4742C32.3593 13.4492 32.425 13.408 32.4792 13.3539C32.5333 13.2997 32.5745 13.234 32.5995 13.1616C32.6246 13.0893 32.6329 13.0122 32.6239 12.9361V9.56163C32.6329 9.48559 32.6246 9.4085 32.5995 9.33614C32.5745 9.26379 32.5333 9.19807 32.4792 9.14392C32.425 9.08978 32.3593 9.04862 32.2869 9.02356C32.2146 8.99849 32.1375 8.99017 32.0615 8.99921ZM8.15863 5.06227L14.9639 5.62469L17.1011 7.19947L17.776 6.2996L15.5263 4.61234L15.2451 4.49985L11.6456 4.21864L14.3452 1.12534H20.0257L23.4564 3.99368L21.488 4.44361L19.4633 2.92508L18.7884 3.82495L21.038 5.51221C21.1678 5.60663 21.3291 5.64696 21.488 5.62469L26.0998 4.61234L27.8433 8.99921H5.1778L8.15863 5.06227ZM6.75258 25.8718C6.30763 25.8718 5.87268 25.7399 5.50272 25.4927C5.13277 25.2455 4.84442 24.8941 4.67415 24.483C4.50387 24.072 4.45932 23.6196 4.54613 23.1832C4.63293 22.7468 4.84719 22.346 5.16181 22.0314C5.47644 21.7167 5.87729 21.5025 6.31369 21.4157C6.75008 21.3289 7.20242 21.3734 7.61349 21.5437C8.02457 21.714 8.37592 22.0023 8.62312 22.3723C8.87031 22.7422 9.00226 23.1772 9.00226 23.6221C9.00226 24.2188 8.76524 24.791 8.34334 25.2129C7.92144 25.6348 7.34923 25.8718 6.75258 25.8718ZM25.8748 25.8718C25.4299 25.8718 24.9949 25.7399 24.625 25.4927C24.255 25.2455 23.9667 24.8941 23.7964 24.483C23.6261 24.072 23.5816 23.6196 23.6684 23.1832C23.7552 22.7468 23.9695 22.346 24.2841 22.0314C24.5987 21.7167 24.9996 21.5025 25.436 21.4157C25.8723 21.3289 26.3247 21.3734 26.7358 21.5437C27.1468 21.714 27.4982 22.0023 27.7454 22.3723C27.9926 22.7422 28.1245 23.1772 28.1245 23.6221C28.1245 24.2188 27.8875 24.791 27.4656 25.2129C27.0437 25.6348 26.4715 25.8718 25.8748 25.8718ZM26.4935 20.3038C26.0537 20.2231 25.6023 20.2305 25.1654 20.3256C24.7285 20.4208 24.3149 20.6019 23.9486 20.8583C23.5823 21.1147 23.2706 21.4414 23.0316 21.8193C22.7927 22.1972 22.6312 22.6188 22.5566 23.0597H10.0709C9.99624 22.6188 9.83475 22.1972 9.59578 21.8193C9.35681 21.4414 9.04511 21.1147 8.67881 20.8583C8.31251 20.6019 7.8989 20.4208 7.46201 20.3256C7.02513 20.2305 6.57369 20.2231 6.13392 20.3038L3.60303 13.4986H29.0244L26.4935 20.3038ZM31.499 12.3737H1.12838V10.124H31.499V12.3737Z" fill="black"/>
<path d="M6.75256 24.4658C7.21849 24.4658 7.59619 24.0881 7.59619 23.6221C7.59619 23.1562 7.21849 22.7785 6.75256 22.7785C6.28664 22.7785 5.90894 23.1562 5.90894 23.6221C5.90894 24.0881 6.28664 24.4658 6.75256 24.4658Z" fill="black"/>
<path d="M25.8749 24.4658C26.3408 24.4658 26.7185 24.0881 26.7185 23.6221C26.7185 23.1562 26.3408 22.7785 25.8749 22.7785C25.409 22.7785 25.0312 23.1562 25.0312 23.6221C25.0312 24.0881 25.409 24.4658 25.8749 24.4658Z" fill="black"/>
</svg>
