<svg width="19" height="19" viewBox="0 0 19 19" fill="none" xmlns="http://www.w3.org/2000/svg">
<rect width="19" height="19" rx="3" fill="#368861"/>
<path d="M11.1003 7.14479V5.21235H15.4965V2.16309H3.29328V5.21235H7.7019V7.14479C4.00848 7.32244 1.23572 8.0639 1.23572 8.95211C1.23572 9.84032 4.00539 10.5772 7.7019 10.7594V17.1376H11.1003V10.7594C14.7937 10.5833 17.5665 9.84187 17.5665 8.95211C17.5665 8.06235 14.7968 7.32244 11.1003 7.14479ZM9.40108 10.1817C5.40182 10.1817 2.15946 9.56382 2.15946 8.81926C2.15946 8.17821 4.52133 7.64065 7.69881 7.49699V9.67967C8.24564 9.70439 8.81409 9.71829 9.39799 9.71829C9.9819 9.71829 10.5534 9.70439 11.0972 9.67967V7.49699C14.2747 7.64065 16.6365 8.17821 16.6365 8.81926C16.6427 9.57154 13.4004 10.1817 9.40108 10.1817Z" fill="white"/>
</svg>
